<?xml version="1.0" encoding="iso-8859-1"?>
<!-- Generator: Adobe Illustrator 19.0.0, SVG Export Plug-In . SVG Version: 6.00 Build 0)  -->
<svg version="1.1" id="Capa_1" xmlns="http://www.w3.org/2000/svg" xmlns:xlink="http://www.w3.org/1999/xlink" x="0px" y="0px"
	 viewBox="0 0 512 512" style="enable-background:new 0 0 512 512;" xml:space="preserve">
<circle style="fill:#AB3CCC;" cx="256" cy="256" r="256"/>
<path style="fill:#802897;" d="M507.019,306.443L298.632,97.698c-5.114-5.061-12.133-8.198-19.852-8.198H142.37
	c-15.404,0-28.027,12.484-28.27,27.833h-0.246c-8.617,0-15.667,7.05-15.667,15.667c0,4.363,1.812,8.317,4.717,11.161l11.185,11.185
	v1.984c0,2.718,1.365,5.128,3.443,6.587l18.767,18.079H83.171c-4.856,0-9.34,1.6-12.952,4.303
	c-5.28,3.948-8.697,10.249-8.697,17.349v144.008h-3.493c-3.094,0-5.625,2.531-5.625,5.625v12.852c0,1.791,0.848,3.393,2.162,4.425
	l134.715,132.641C210.555,508.927,232.917,512,256,512C380.117,512,483.592,423.668,507.019,306.443z"/>
<rect x="151.93" y="163" style="fill:#3C3B41;" width="15.573" height="21.333"/>
<rect x="253.64" y="163" style="fill:#2A2A2C;" width="15.573" height="21.333"/>
<path style="fill:#E02424;" d="M451.814,310.884l-22.804-25.835l-29.46-10.419l-45.867-80.871
	c-3.708-7.22-11.142-11.759-19.258-11.759H83.171c-11.956,0-21.649,9.692-21.649,21.649v161.129h390.292V310.884z"/>
<path style="fill:#C2001B;" d="M451.809,310.884l0.001,53.896h-241.9V182h124.52c0.36,0,0.72,0.01,1.06,0.03
	c0.06-0.01,0.11,0,0.16,0c0.1,0.01,0.21,0.01,0.31,0.02c0.24,0.02,0.49,0.04,0.73,0.07c0.23,0.02,0.47,0.05,0.7,0.09
	c0.02-0.01,0.05,0,0.07,0.01c0.24,0.03,0.47,0.07,0.71,0.11s0.49,0.09,0.73,0.14c0.21,0.04,0.42,0.09,0.63,0.14
	c0.12,0.03,0.24,0.06,0.36,0.09c0.21,0.06,0.43,0.11,0.64,0.18c0,0,0.01,0,0.02,0.01c0.4,0.11,0.8,0.24,1.19,0.38
	c0.23,0.09,0.46,0.17,0.69,0.27c2.08,0.82,4.02,1.97,5.75,3.39c0.16,0.14,0.32,0.27,0.48,0.41c0.22,0.18,0.43,0.38,0.64,0.58
	c0.14,0.14,0.29,0.27,0.43,0.42c0.19,0.18,0.37,0.37,0.54,0.57c0.12,0.12,0.23,0.24,0.34,0.36c0.21,0.23,0.41,0.47,0.61,0.72
	c0.02,0.01,0.03,0.03,0.03,0.04c0.12,0.14,0.23,0.28,0.33,0.42c0.19,0.23,0.37,0.48,0.54,0.73c0.11,0.15,0.21,0.31,0.31,0.46
	c0.19,0.26,0.36,0.53,0.51,0.8c0.09,0.14,0.18,0.29,0.26,0.44c0.09,0.14,0.18,0.29,0.24,0.44c0.09,0.14,0.16,0.29,0.24,0.44
	l5.93,10.46h0.01l39.93,70.41l29.46,10.419L451.809,310.884z"/>
<polygon style="fill:#FF8900;" points="451.814,364.777 451.814,293.109 444.151,290.4 61.522,290.4 61.522,364.777 "/>
<polygon style="fill:#E67500;" points="451.81,293.11 451.81,364.78 209.91,364.78 209.91,290.4 444.15,290.4 "/>
<rect x="287.62" y="199.91" style="fill:#860010;" width="7.206" height="164.86"/>
<circle style="fill:#3C3B41;" cx="146.53" cy="364.78" r="41.22"/>
<circle style="fill:#FFFFFF;" cx="146.53" cy="364.78" r="24.906"/>
<circle style="fill:#2A2A2C;" cx="361.66" cy="364.78" r="41.22"/>
<circle style="fill:#E1E1E3;" cx="361.66" cy="364.78" r="24.906"/>
<path style="fill:#FF8900;" d="M359.623,204.219H61.525v-0.567c0-11.962,9.694-21.656,21.646-21.656h251.251
	c0.413,0,0.826,0.01,1.23,0.029c7.638,0.442,14.517,4.881,18.034,11.731L359.623,204.219z"/>
<path style="fill:#E67500;" d="M359.62,204.22H209.91V182h124.52c0.36,0,0.72,0.01,1.06,0.03c0.06-0.01,0.11,0,0.16,0
	c0.1,0.01,0.21,0.01,0.31,0.02c0.24,0.02,0.49,0.04,0.73,0.07c0.23,0.02,0.47,0.05,0.7,0.09c0.02-0.01,0.05,0,0.07,0.01
	c0.24,0.03,0.47,0.07,0.71,0.11s0.49,0.09,0.73,0.14c0.21,0.04,0.42,0.09,0.63,0.14c0.12,0.03,0.24,0.06,0.36,0.09
	c0.21,0.06,0.43,0.11,0.64,0.18c0,0,0.01,0,0.02,0.01c0.4,0.11,0.8,0.24,1.19,0.38c0.23,0.09,0.46,0.17,0.69,0.27
	c2.08,0.82,4.02,1.97,5.75,3.39c0.16,0.14,0.32,0.27,0.48,0.41c0.22,0.18,0.43,0.38,0.64,0.58c0.14,0.14,0.29,0.27,0.43,0.42
	c0.19,0.18,0.37,0.37,0.54,0.57c0.12,0.12,0.23,0.24,0.34,0.36c0.21,0.23,0.41,0.47,0.61,0.72c0.02,0.01,0.03,0.03,0.03,0.04
	c0.12,0.14,0.23,0.28,0.33,0.42c0.19,0.23,0.37,0.48,0.54,0.73c0.11,0.15,0.21,0.31,0.31,0.46c0.19,0.26,0.36,0.53,0.51,0.8
	c0.09,0.14,0.18,0.29,0.26,0.44c0.09,0.14,0.18,0.29,0.24,0.44c0.1,0.15,0.17,0.29,0.25,0.44L359.62,204.22z"/>
<path style="fill:#C2001B;" d="M453.971,371.758h-24.156c-3.094,0-5.625-2.531-5.625-5.625v-12.852c0-3.094,2.531-5.625,5.625-5.625
	h24.156c3.094,0,5.625,2.531,5.625,5.625v12.852C459.596,369.227,457.064,371.758,453.971,371.758z"/>
<path style="fill:#E02424;" d="M82.185,371.758H58.029c-3.094,0-5.625-2.531-5.625-5.625v-12.852c0-3.094,2.531-5.625,5.625-5.625
	h24.156c3.094,0,5.625,2.531,5.625,5.625v12.852C87.81,369.227,85.279,371.758,82.185,371.758z"/>
<rect x="95.3" y="217.21" style="fill:#FFFFFF;" width="160.46" height="94.96"/>
<rect x="209.91" y="217.21" style="fill:#E1E1E3;" width="45.84" height="94.95"/>
<g>
	<rect x="104.73" y="238.32" style="fill:#49BBEE;" width="66.15" height="66.845"/>
	<rect x="180.17" y="238.32" style="fill:#49BBEE;" width="66.15" height="66.845"/>
</g>
<rect x="209.91" y="238.32" style="fill:#009AE5;" width="36.42" height="66.85"/>
<circle style="fill:#E67500;" cx="106.76" cy="238.32" r="11.461"/>
<circle style="fill:#C8C6CC;" cx="129.68" cy="238.32" r="11.461"/>
<circle style="fill:#E67500;" cx="152.6" cy="238.32" r="11.461"/>
<circle style="fill:#C8C6CC;" cx="175.53" cy="238.32" r="11.461"/>
<circle style="fill:#E67500;" cx="198.45" cy="238.32" r="11.461"/>
<circle style="fill:#AEADB3;" cx="221.37" cy="238.32" r="11.461"/>
<circle style="fill:#C06100;" cx="244.29" cy="238.32" r="11.461"/>
<rect x="118.22" y="215.39" style="fill:#FFFFFF;" width="114.61" height="22.932"/>
<rect x="209.91" y="215.39" style="fill:#E1E1E3;" width="22.923" height="22.932"/>
<g>
	<rect x="95.3" y="215.39" style="fill:#FF8900;" width="22.923" height="22.932"/>
	<rect x="141.14" y="215.39" style="fill:#FF8900;" width="22.923" height="22.932"/>
	<rect x="186.99" y="215.39" style="fill:#FF8900;" width="22.922" height="22.932"/>
</g>
<rect x="232.83" y="215.39" style="fill:#E67500;" width="22.923" height="22.932"/>
<polygon style="fill:#E1E1E3;" points="451.809,293.109 451.809,310.884 429.01,310.884 429.01,285.049 "/>
<polygon style="fill:#2A2A2C;" points="315.322,275.976 384.338,275.976 349.514,213.166 315.322,213.166 "/>
<rect x="315.32" y="285.05" style="fill:#E1E1E3;" width="21.433" height="10.703"/>
<path style="fill:#FF9A00;" d="M299.001,165.39H122.148c-4.433,0-8.059-3.627-8.059-8.059v-39.549
	c0-15.555,12.726-28.281,28.281-28.281h136.41c15.555,0,28.281,12.727,28.281,28.281v39.549
	C307.06,161.763,303.434,165.39,299.001,165.39z"/>
<path style="fill:#FF8900;" d="M307.06,117.78v39.55c0,4.43-3.63,8.06-8.06,8.06h-89.09V89.5h68.87c15.4,0,28.03,12.48,28.27,27.83
	C307.06,117.48,307.06,117.63,307.06,117.78z"/>
<path style="fill:#E02424;" d="M307.296,148.667H113.853c-8.617,0-15.667-7.05-15.667-15.667l0,0c0-8.617,7.05-15.667,15.667-15.667
	h193.442c8.617,0,15.667,7.05,15.667,15.667l0,0C322.962,141.617,315.912,148.667,307.296,148.667z"/>
<path style="fill:#C2001B;" d="M322.96,133c0,4.31-1.76,8.23-4.6,11.07c-2.84,2.84-6.76,4.6-11.06,4.6h-97.39v-31.34h97.39
	C315.91,117.33,322.96,124.38,322.96,133z"/>
<path style="fill:#FFFFFF;" d="M263.638,140c-7.582,0-11.552-2.097-15.055-3.946c-3.11-1.642-5.795-3.061-11.48-3.061
	c-5.684,0-8.369,1.418-11.478,3.061c-3.502,1.85-7.472,3.946-15.054,3.946s-11.551-2.097-15.054-3.946
	c-3.109-1.642-5.794-3.061-11.479-3.061c-5.684,0-8.369,1.418-11.478,3.061c-3.502,1.85-7.471,3.946-15.053,3.946
	s-11.551-2.097-15.053-3.946c-3.109-1.642-5.794-3.061-11.478-3.061v-7.655c7.582,0,11.551,2.097,15.053,3.946
	c3.109,1.642,5.794,3.061,11.478,3.061c5.684,0,8.369-1.418,11.478-3.061c3.502-1.85,7.471-3.946,15.053-3.946
	s11.551,2.097,15.054,3.946c3.109,1.642,5.794,3.061,11.479,3.061c5.684,0,8.369-1.418,11.479-3.061
	c3.502-1.85,7.472-3.946,15.053-3.946c7.583,0,11.552,2.097,15.055,3.946c3.109,1.642,5.795,3.061,11.48,3.061
	s8.371-1.418,11.48-3.061c3.503-1.85,7.473-3.946,15.055-3.946v7.655c-5.685,0-8.371,1.418-11.48,3.061
	C275.19,137.903,271.22,140,263.638,140z"/>
<path style="fill:#E1E1E3;" d="M290.17,125.34v7.65c-5.68,0-8.37,1.42-11.48,3.06c-3.5,1.85-7.47,3.95-15.05,3.95
	s-11.55-2.1-15.06-3.95c-3.11-1.64-5.79-3.06-11.48-3.06c-5.68,0-8.37,1.42-11.48,3.06c-3.5,1.85-7.47,3.95-15.05,3.95
	c-0.22,0-0.44,0-0.66-0.01v-7.65c0.22,0.01,0.44,0.01,0.66,0.01c5.68,0,8.37-1.42,11.48-3.07c3.5-1.84,7.47-3.94,15.05-3.94
	s11.55,2.1,15.06,3.94c3.11,1.65,5.79,3.07,11.48,3.07c5.68,0,8.37-1.42,11.48-3.07C278.62,127.44,282.59,125.34,290.17,125.34z"/>
<g>
</g>
<g>
</g>
<g>
</g>
<g>
</g>
<g>
</g>
<g>
</g>
<g>
</g>
<g>
</g>
<g>
</g>
<g>
</g>
<g>
</g>
<g>
</g>
<g>
</g>
<g>
</g>
<g>
</g>
</svg>
