<?xml version="1.0" encoding="iso-8859-1"?>
<!-- Generator: Adobe Illustrator 19.0.0, SVG Export Plug-In . SVG Version: 6.00 Build 0)  -->
<svg version="1.1" id="Capa_1" xmlns="http://www.w3.org/2000/svg" xmlns:xlink="http://www.w3.org/1999/xlink" x="0px" y="0px"
	 viewBox="0 0 512 512" style="enable-background:new 0 0 512 512;" xml:space="preserve">
<path style="fill:#FFE1B4;" d="M207.667,65c-46.318,0-84,37.682-84,84v214c0,46.318,37.682,84,84,84h15V65H207.667z"/>
<path style="fill:#FFCB7D;" d="M304.333,65h-15v382h15c46.318,0,84-37.682,84-84V149C388.333,102.682,350.651,65,304.333,65z"/>
<path style="fill:#FF5D00;" d="M256,0c-34.799,0-63.111,28.312-63.111,63.111v385.777C192.889,483.689,221.2,512,256,512
	c34.799,0,63.111-28.311,63.111-63.111V63.111C319.111,28.312,290.8,0,256,0z"/>
<path style="fill:#E34400;" d="M256,512c34.799,0,63.111-28.311,63.111-63.111V63.111C319.111,28.312,290.8,0,256,0"/>
<g>
	<polygon style="fill:#CC001C;" points="288,99.495 224,133.254 224,167.172 288,133.413 	"/>
	<polygon style="fill:#CC001C;" points="288,222.162 224,255.92 224,289.838 288,256.08 	"/>
	<polygon style="fill:#CC001C;" points="224,412.505 288,378.746 288,344.828 224,378.587 	"/>
</g>
<g>
	<polygon style="fill:#870013;" points="288,133.413 288,99.495 256,116.374 256,150.292 	"/>
	<polygon style="fill:#870013;" points="288,256.08 288,222.162 256,239.041 256,272.959 	"/>
	<polygon style="fill:#870013;" points="288,378.746 288,344.828 256,361.707 256,395.625 	"/>
</g>
<g>
	<polygon style="fill:#CC001C;" points="224,167.172 256,150.292 256,116.374 224,133.254 	"/>
	<polygon style="fill:#CC001C;" points="224,289.838 256,272.959 256,239.041 224,255.92 	"/>
	<polygon style="fill:#CC001C;" points="224,412.505 256,395.625 256,361.707 224,378.587 	"/>
</g>
<g>
</g>
<g>
</g>
<g>
</g>
<g>
</g>
<g>
</g>
<g>
</g>
<g>
</g>
<g>
</g>
<g>
</g>
<g>
</g>
<g>
</g>
<g>
</g>
<g>
</g>
<g>
</g>
<g>
</g>
</svg>
